<svg id="AR-double" xmlns="http://www.w3.org/2000/svg" viewBox="0 0 575.2023 579.94501"><defs><style>.cls-1{fill:#94070a;stroke-width:3px;}.cls-1,.cls-2{stroke:#000;stroke-miterlimit:10;}.cls-2{font-size:367.35001px;font-family:Vermin-Vibes, Vermin Vibes;letter-spacing:0.07em;}</style></defs><title>as-logo</title><path class="cls-1" d="M93.46206,570.45328C20.78189,471.4548,29.20028,331.54674,118.72,242.027s229.4278-97.93813,328.42629-25.258l8.83219-8.83219C352.05728,130.4863,204.33325,138.925,109.97562,233.2826S7.17932,475.36425,84.62987,579.28547Z" transform="translate(-10.03685 -130.97247)"/><path class="cls-1" d="M501.81394,271.43667C574.49406,370.435,566.07572,510.34321,476.556,599.863s-229.42793,97.93809-328.42629,25.258l-8.83223,8.83223c103.92126,77.45068,251.64525,69.01188,346.00292-25.34579S588.09685,366.5257,510.64617,262.60444Z" transform="translate(-10.03685 -130.97247)"/><path class="cls-1" d="M25.32446,382.28912C44.11865,248.69983,158.86523,145.91431,297.638,145.91431S551.15735,248.69983,569.95154,382.28912h13.5733c-18.891-141.0382-139.67761-249.81665-285.88684-249.81665S30.64215,241.25092,11.75116,382.28912Z" transform="translate(-10.03685 -130.97247)"/><path class="cls-1" d="M569.95154,459.60083C551.15735,593.19012,436.41083,695.97565,297.638,695.97565S44.11865,593.19012,25.32446,459.60083H11.75116C30.64215,600.639,151.42877,709.41748,297.638,709.41748S564.63385,600.639,583.52484,459.60083Z" transform="translate(-10.03685 -130.97247)"/><text class="cls-2" transform="translate(68.10963 369.216)">AS</text></svg>