<svg xmlns="http://www.w3.org/2000/svg" viewBox="0 0 523.56304 124.26179"><defs><style>.cls-1{fill:none;}.cls-1,.cls-3,.cls-4{stroke:#000;stroke-miterlimit:10;}.cls-1,.cls-4{stroke-width:1.5px;}.cls-2{font-size:12px;font-family:TimesNewRomanPSMT, Times New Roman;}.cls-3{font-size:71.54141px;font-family:Vermin-Vibes, Vermin Vibes;letter-spacing:0.07em;}.cls-4{fill:#93070a;}.cls-5{font-size:16px;}.cls-5,.cls-6{font-family:OpenSans-Semibold, Open Sans;font-weight:600;}.cls-6{font-size:10.5px;}</style></defs><title>resume-header</title><g id="info"><line class="cls-1" x1="394.91598" y1="62.96767" x2="394.91598" y2="124.26179"/><text class="cls-2" transform="translate(424.79891 75.66081)">asoames@sfu.ca<tspan x="0" y="18">604-808-3951</tspan><tspan x="0" y="36">soames.ca/portfolio</tspan></text><path d="M439.78214,82.18748a.17914.17914,0,0,0-.00778-.03847.19.19,0,0,0-.01079-.03261.1698.1698,0,0,0-.019-.029.17932.17932,0,0,0-.02521-.02939l-.00758-.00891L437.889,80.63337V79.16608a.56866.56866,0,0,0-.56865-.56864h-2.05414l-.82247-.63859a.562.562,0,0,0-.69128,0l-.82265.63859h-2.05414a.56864.56864,0,0,0-.56865.56864v1.46731l-1.82231,1.41573-.00757.0089a.17809.17809,0,0,0-.02521.02939.169.169,0,0,0-.019.029.18716.18716,0,0,0-.0108.03261.17973.17973,0,0,0-.00777.03792l-.00227.01137v6.44517a.56232.56232,0,0,0,.11127.33455l.00264.00531.00607.00531a.56586.56586,0,0,0,.44809.22348h10.23562a.566.566,0,0,0,.44961-.22441l.00511-.00436.00266-.00531a.5624.5624,0,0,0,.11127-.33454V82.19885Zm-5.79792-3.92954a.18175.18175,0,0,1,.22613,0l.43728.33948h-1.09938Zm-4.9563,10.57512,4.95632-3.84993a.182.182,0,0,1,.22613,0l4.95763,3.84993Zm10.3774-.29552L434.44369,84.684a.5624.5624,0,0,0-.69128,0l-4.96181,3.85353v-6.05l3.10614,2.412a.18962.18962,0,1,0,.23239-.29969l-3.15561-2.45029L430.307,81.1133v1.46463a.18955.18955,0,1,0,.37909,0V79.16606a.18953.18953,0,0,1,.18954-.18954h6.44464a.18953.18953,0,0,1,.18954.18954v3.41187a.18954.18954,0,1,0,.37908,0V81.1133l1.33347,1.03626-3.16109,2.45466a.18955.18955,0,1,0,.23239.29948l3.11163-2.41617v6.05Z" transform="translate(-18.67226 -10.98997)"/><path d="M436.37253,82.38839v-.75818a2.27458,2.27458,0,1,0-2.27458,2.27458.18954.18954,0,0,0,0-.37908,1.89548,1.89548,0,1,1,1.89548-1.89548v.75819a.37911.37911,0,0,1-.75821,0v-.75819a.18954.18954,0,0,0-.37908,0,.75819.75819,0,1,1-.75819-.75819.18954.18954,0,1,0,0-.37908,1.13729,1.13729,0,1,0,.76634,1.97529.75611.75611,0,0,0,1.50824-.07986Z" transform="translate(-18.67226 -10.98997)"/><path d="M437.13978,103.32558a1.08473,1.08473,0,0,0-.78675-.36078,1.12166,1.12166,0,0,0-.79606.35846l-.73554.73321c-.06052-.03259-.121-.06285-.17923-.09311-.08379-.0419-.16293-.08147-.23044-.12336a7.99454,7.99454,0,0,1-1.91566-1.74575,4.71643,4.71643,0,0,1-.62847-.99158c.19087-.17457.36777-.35613.54-.53071.06518-.06517.13035-.13267.19552-.19785a1.06793,1.06793,0,0,0,0-1.61074l-.63545-.63545c-.07215-.07215-.14664-.14664-.21647-.22112-.13966-.14432-.2863-.29329-.4376-.433a1.10183,1.10183,0,0,0-.77976-.34216,1.1402,1.1402,0,0,0-.79141.34216l-.00465.00466-.79141.79838a1.70292,1.70292,0,0,0-.5051,1.08236,4.08061,4.08061,0,0,0,.29794,1.72713,10.02244,10.02244,0,0,0,1.78066,2.97009,10.95362,10.95362,0,0,0,3.64744,2.856,5.68283,5.68283,0,0,0,2.04834.6052c.04888.00232.10009.00465.14664.00465a1.75391,1.75391,0,0,0,1.34306-.57726l.00931-.01164a5.293,5.293,0,0,1,.40734-.4213c.10009-.09544.20251-.19552.3026-.30027a1.16121,1.16121,0,0,0,.35147-.80537,1.11864,1.11864,0,0,0-.35846-.79839Zm.8333,2.451h0c-.09078.09776-.18388.18621-.284.284a6.11991,6.11991,0,0,0-.44924.46553,1.1221,1.1221,0,0,1-.8752.3701c-.03491,0-.07216,0-.10707-.00233a5.04835,5.04835,0,0,1-1.81558-.54467,10.33973,10.33973,0,0,1-3.43562-2.69077,9.44976,9.44976,0,0,1-1.67591-2.79086,3.32348,3.32348,0,0,1-.2607-1.45712,1.0685,1.0685,0,0,1,.32122-.69131l.79373-.79373a.52907.52907,0,0,1,.3538-.16527.49789.49789,0,0,1,.33984.16294l.007.007c.142.13268.277.27.419.41665.07216.07449.14664.149.22113.22579l.63545.63545a.44423.44423,0,0,1,0,.72157c-.0675.0675-.13268.135-.20018.20018-.19552.20018-.38174.38639-.58424.56795-.00466.00465-.00931.007-.01164.01164a.47474.47474,0,0,0-.121.52837l.007.02095a5.10131,5.10131,0,0,0,.75183,1.22668l.00233.00233a8.54341,8.54341,0,0,0,2.067,1.88075,3.17848,3.17848,0,0,0,.2863.156c.08379.0419.16293.08147.23044.12336.00931.00466.01862.01164.02793.0163a.50457.50457,0,0,0,.23044.05819.49768.49768,0,0,0,.3538-.16061l.79606-.79606a.52657.52657,0,0,1,.35148-.17457.47407.47407,0,0,1,.33518.16992l.00466.00465,1.28254,1.28254A.46025.46025,0,0,1,437.97308,105.77661Z" transform="translate(-18.67226 -10.98997)"/><path d="M434.38383,99.11718a2.99565,2.99565,0,0,1,2.43939,2.43938.31231.31231,0,0,0,.30958.2607.4168.4168,0,0,0,.05353-.00465.31455.31455,0,0,0,.25837-.36312,3.62227,3.62227,0,0,0-2.95147-2.95147.31587.31587,0,0,0-.36311.256A.31084.31084,0,0,0,434.38383,99.11718Z" transform="translate(-18.67226 -10.98997)"/><path d="M439.43951,101.35871a5.96452,5.96452,0,0,0-4.86015-4.86015.31379.31379,0,1,0-.10242.61916,5.32754,5.32754,0,0,1,4.34341,4.34341.31231.31231,0,0,0,.30958.2607.415.415,0,0,0,.05353-.00466A.30839.30839,0,0,0,439.43951,101.35871Z" transform="translate(-18.67226 -10.98997)"/><path d="M439.37524,115.37207l-.00208-.00008H436.3565v-.33272a.99931.99931,0,0,0-.99816-.99817h-2.66177a.99931.99931,0,0,0-.99816.99817v.33272h-3.01666a.33358.33358,0,0,0-.33272.33272v7.31985a.99931.99931,0,0,0,.99816.99816h9.36053a.99931.99931,0,0,0,.99816-.99816v-7.31413A.323.323,0,0,0,439.37524,115.37207Zm-7.01139-.3328a.33314.33314,0,0,1,.33272-.33272h2.66177a.33314.33314,0,0,1,.33272.33272v.33272h-3.32721Zm6.54766.99816-1.03325,3.09967a.33216.33216,0,0,1-.31556.22753h-1.87164v-.33272a.3327.3327,0,0,0-.33272-.33272h-2.66177a.3327.3327,0,0,0-.33272.33272v.33272h-1.87164a.33215.33215,0,0,1-.31556-.22753l-1.03325-3.09967Zm-3.88589,3.3272v.66544h-1.99633v-.66544Zm4.01482,3.65993a.33314.33314,0,0,1-.33272.33272h-9.36053a.33314.33314,0,0,1-.33272-.33272V117.755l.53088,1.59255a.99671.99671,0,0,0,.94686.68251h1.87164v.33272a.3327.3327,0,0,0,.33272.33272h2.66177a.3327.3327,0,0,0,.33272-.33272v-.33272h1.87164a.99671.99671,0,0,0,.94686-.68251l.53088-1.59255Z" transform="translate(-18.67226 -10.98997)"/></g><g id="logo"><text class="cls-3" transform="translate(13.78722 72.36259)">AS</text><path class="cls-4" d="M35.44261,97.03674a49.2851,49.2851,0,0,1,68.88-68.88l1.72007-1.72007A51.68985,51.68985,0,0,0,33.72254,98.75681Z" transform="translate(-18.67226 -10.98997)"/><path class="cls-4" d="M114.96915,38.80324a49.2851,49.2851,0,0,1-68.88,68.88l-1.72008,1.72008a51.68986,51.68986,0,0,0,72.32017-72.32018Z" transform="translate(-18.67226 -10.98997)"/><path class="cls-4" d="M22.17281,60.39177a53.56514,53.56514,0,0,1,106.06614,0h2.6434a56.1836,56.1836,0,0,0-111.35294,0Z" transform="translate(-18.67226 -10.98997)"/><path class="cls-4" d="M128.239,75.44823a53.56514,53.56514,0,0,1-106.06614,0h-2.6434a56.1836,56.1836,0,0,0,111.35294,0Z" transform="translate(-18.67226 -10.98997)"/></g><g id="name"><text class="cls-5" transform="translate(141.44533 77.74536)">ALEX SOAMES</text><text class="cls-6" transform="translate(141.32763 93.82946)">Interaction Designer</text></g></svg>